<svg width="231" height="230" viewBox="0 0 231 230" fill="none" xmlns="http://www.w3.org/2000/svg">
<path d="M230.494 115C230.494 178.513 179.007 230 115.494 230C51.9814 230 0.494141 178.513 0.494141 115C0.494141 51.4873 51.9814 0 115.494 0C179.007 0 230.494 51.4873 230.494 115ZM30.704 115C30.704 161.828 68.6658 199.79 115.494 199.79C162.322 199.79 200.284 161.828 200.284 115C200.284 68.1717 162.322 30.2098 115.494 30.2098C68.6658 30.2098 30.704 68.1717 30.704 115Z" fill="#D9D9D9"/>
<path d="M215.389 115C223.731 115 230.596 121.791 229.504 130.062C227.204 147.466 220.94 164.183 211.113 178.891C198.477 197.802 180.516 212.542 159.503 221.246C138.489 229.95 115.367 232.228 93.0588 227.79C70.7509 223.353 50.2599 212.4 34.1769 196.317C18.0938 180.234 7.14113 159.743 2.70383 137.435C-1.73347 115.128 0.543917 92.0049 9.24799 70.9914C17.9521 49.9779 32.6919 32.0174 51.6036 19.381C66.3112 9.55367 83.0283 3.28979 100.432 0.990519C108.703 -0.102087 115.494 6.76269 115.494 15.1049C115.494 23.4471 108.679 30.0733 100.469 31.5517C89.0512 33.6076 78.1222 37.9949 68.3872 44.4995C54.4436 53.8164 43.5758 67.0588 37.1582 82.5522C30.7407 98.0456 29.0615 115.094 32.3332 131.542C35.6048 147.989 43.6803 163.098 55.5384 174.956C67.3965 186.814 82.5047 194.889 98.9524 198.161C115.4 201.433 132.449 199.753 147.942 193.336C163.435 186.918 176.678 176.051 185.995 162.107C192.499 152.372 196.887 141.443 198.942 130.025C200.421 121.815 207.047 115 215.389 115Z" fill="#00AFB5"/>
<path d="M88.2995 127.226L97.5475 106.49L98.6355 108.346H85.9315L87.9155 106.33V112.154H84.0435V104.826H101.451V107.61L92.7475 127.226H88.2995ZM110.886 127.546C109.307 127.546 107.76 127.322 106.246 126.874C104.752 126.404 103.494 125.764 102.47 124.954L104.23 121.722C105.04 122.383 106.022 122.916 107.174 123.322C108.347 123.727 109.563 123.93 110.822 123.93C112.294 123.93 113.446 123.62 114.278 123.002C115.131 122.383 115.558 121.551 115.558 120.506C115.558 119.802 115.376 119.183 115.014 118.65C114.672 118.116 114.054 117.711 113.158 117.434C112.283 117.156 111.078 117.018 109.542 117.018H104.134L105.286 104.826H118.438V108.314H106.822L108.998 106.33L108.134 115.45L105.958 113.498H110.47C112.688 113.498 114.47 113.796 115.814 114.394C117.179 114.97 118.171 115.78 118.79 116.826C119.43 117.85 119.75 119.023 119.75 120.346C119.75 121.647 119.43 122.842 118.79 123.93C118.15 125.018 117.168 125.892 115.846 126.554C114.544 127.215 112.891 127.546 110.886 127.546ZM124.973 127.226L140.269 104.826H143.405L128.109 127.226H124.973ZM126.829 116.89C125.783 116.89 124.855 116.634 124.045 116.122C123.234 115.61 122.605 114.895 122.157 113.978C121.709 113.06 121.485 111.983 121.485 110.746C121.485 109.508 121.709 108.431 122.157 107.514C122.605 106.596 123.234 105.882 124.045 105.37C124.855 104.858 125.783 104.602 126.829 104.602C127.917 104.602 128.855 104.858 129.645 105.37C130.455 105.882 131.085 106.596 131.533 107.514C131.981 108.431 132.205 109.508 132.205 110.746C132.205 111.983 131.981 113.06 131.533 113.978C131.085 114.895 130.455 115.61 129.645 116.122C128.855 116.634 127.917 116.89 126.829 116.89ZM126.861 114.65C127.714 114.65 128.375 114.319 128.845 113.658C129.335 112.975 129.581 112.004 129.581 110.746C129.581 109.487 129.335 108.527 128.845 107.866C128.375 107.183 127.714 106.842 126.861 106.842C126.007 106.842 125.325 107.183 124.813 107.866C124.322 108.548 124.077 109.508 124.077 110.746C124.077 111.983 124.322 112.943 124.813 113.626C125.325 114.308 126.007 114.65 126.861 114.65ZM141.517 127.45C140.471 127.45 139.543 127.194 138.733 126.682C137.922 126.17 137.293 125.455 136.845 124.538C136.397 123.62 136.173 122.543 136.173 121.306C136.173 120.068 136.397 118.991 136.845 118.074C137.293 117.156 137.922 116.442 138.733 115.93C139.543 115.418 140.471 115.162 141.517 115.162C142.605 115.162 143.543 115.418 144.333 115.93C145.143 116.442 145.773 117.156 146.221 118.074C146.669 118.991 146.893 120.068 146.893 121.306C146.893 122.543 146.669 123.62 146.221 124.538C145.773 125.455 145.143 126.17 144.333 126.682C143.543 127.194 142.605 127.45 141.517 127.45ZM141.517 125.21C142.37 125.21 143.042 124.868 143.533 124.186C144.023 123.503 144.269 122.543 144.269 121.306C144.269 120.068 144.023 119.108 143.533 118.426C143.042 117.743 142.37 117.402 141.517 117.402C140.685 117.402 140.013 117.743 139.501 118.426C139.01 119.087 138.765 120.047 138.765 121.306C138.765 122.564 139.01 123.535 139.501 124.218C140.013 124.879 140.685 125.21 141.517 125.21Z" fill="#D2DCE9"/>
</svg>
