<svg width="777" height="436" viewBox="0 0 777 436" fill="none" xmlns="http://www.w3.org/2000/svg">
<rect width="777" height="436" rx="10" fill="url(#paint0_linear_151_597)"/>
<circle cx="419" cy="88" r="5" fill="url(#paint1_linear_151_597)"/>
<circle cx="494" cy="281" r="5" fill="url(#paint2_linear_151_597)"/>
<circle cx="559" cy="253" r="5" fill="url(#paint3_linear_151_597)"/>
<circle cx="741" cy="276" r="5" fill="url(#paint4_linear_151_597)"/>
<circle cx="741" cy="106" r="5" fill="url(#paint5_linear_151_597)"/>
<circle cx="377.5" cy="160.5" r="2.5" fill="url(#paint6_linear_151_597)"/>
<circle cx="125.5" cy="165.5" r="2.5" fill="url(#paint7_linear_151_597)"/>
<circle cx="250.5" cy="187.5" r="2.5" fill="url(#paint8_linear_151_597)"/>
<circle cx="501.5" cy="220.5" r="2.5" fill="url(#paint9_linear_151_597)"/>
<circle cx="615.5" cy="280.5" r="2.5" fill="url(#paint10_linear_151_597)"/>
<circle cx="388.5" cy="312.5" r="2.5" fill="url(#paint11_linear_151_597)"/>
<circle cx="526.5" cy="80.5" r="2.5" fill="url(#paint12_linear_151_597)"/>
<circle cx="437.5" cy="128.5" r="2.5" fill="url(#paint13_linear_151_597)"/>
<circle cx="664.5" cy="275.5" r="2.5" fill="url(#paint14_linear_151_597)"/>
<circle cx="743.5" cy="208.5" r="2.5" fill="url(#paint15_linear_151_597)"/>
<circle cx="175.5" cy="206.5" r="2.5" fill="url(#paint16_linear_151_597)"/>
<circle cx="52" cy="281" r="5" fill="url(#paint17_linear_151_597)"/>
<circle cx="231" cy="258" r="5" fill="url(#paint18_linear_151_597)"/>
<circle cx="618" cy="158" r="75" fill="url(#paint19_linear_151_597)"/>
<path opacity="0.5" fill-rule="evenodd" clip-rule="evenodd" d="M462 252.003H312C313.801 238.178 325.623 227.502 339.939 227.502C341.044 227.502 342.134 227.565 343.206 227.689C350.387 213.066 365.427 203 382.817 203C402.583 203 419.312 216.003 424.917 233.921C427.855 232.936 431.001 232.402 434.271 232.402C447.073 232.402 457.964 240.584 462 252.003Z" fill="url(#paint20_linear_151_597)"/>
<path opacity="0.5" fill-rule="evenodd" clip-rule="evenodd" d="M440 49.0033H290C291.801 35.1781 303.623 24.5015 317.939 24.5015C319.044 24.5015 320.134 24.5651 321.206 24.6889C328.387 10.0657 343.427 0 360.817 0C380.583 0 397.312 13.0028 402.917 30.9211C405.855 29.9357 409.001 29.4019 412.271 29.4019C425.073 29.4019 435.964 37.5836 440 49.0033Z" fill="url(#paint21_linear_151_597)"/>
<path opacity="0.5" fill-rule="evenodd" clip-rule="evenodd" d="M599 406.003H449C450.801 392.178 462.623 381.502 476.939 381.502C478.044 381.502 479.134 381.565 480.206 381.689C487.387 367.066 502.427 357 519.817 357C539.583 357 556.312 370.003 561.917 387.921C564.855 386.936 568.001 386.402 571.271 386.402C584.073 386.402 594.964 394.584 599 406.003Z" fill="url(#paint22_linear_151_597)"/>
<path opacity="0.5" fill-rule="evenodd" clip-rule="evenodd" d="M324.051 363H171C172.837 348.894 184.9 338 199.508 338C200.635 338 201.747 338.065 202.841 338.191C210.168 323.27 225.513 313 243.258 313C263.426 313 280.495 326.267 286.213 344.55C289.212 343.545 292.421 343 295.758 343C308.82 343 319.933 351.348 324.051 363Z" fill="url(#paint23_linear_151_597)"/>
<path opacity="0.5" fill-rule="evenodd" clip-rule="evenodd" d="M214.271 263H0C2.57248 243.251 19.4606 228 39.9107 228C41.4891 228 43.0462 228.091 44.5772 228.267C54.8346 207.379 76.3185 193 101.161 193C129.396 193 153.292 211.574 161.298 237.17C165.496 235.762 169.989 235 174.661 235C192.948 235 208.505 246.687 214.271 263Z" fill="url(#paint24_linear_151_597)"/>
<defs>
<linearGradient id="paint0_linear_151_597" x1="388.5" y1="0" x2="388.5" y2="436" gradientUnits="userSpaceOnUse">
<stop stop-color="#0077B6"/>
<stop offset="1" stop-color="#324664"/>
</linearGradient>
<linearGradient id="paint1_linear_151_597" x1="419" y1="83" x2="419" y2="93" gradientUnits="userSpaceOnUse">
<stop stop-color="#FFFEDA"/>
<stop offset="1" stop-color="#FFFEDA" stop-opacity="0.59"/>
</linearGradient>
<linearGradient id="paint2_linear_151_597" x1="494" y1="276" x2="494" y2="286" gradientUnits="userSpaceOnUse">
<stop stop-color="#FFFEDA"/>
<stop offset="1" stop-color="#FFFEDA" stop-opacity="0.59"/>
</linearGradient>
<linearGradient id="paint3_linear_151_597" x1="559" y1="248" x2="559" y2="258" gradientUnits="userSpaceOnUse">
<stop stop-color="#FFFEDA"/>
<stop offset="1" stop-color="#FFFEDA" stop-opacity="0.59"/>
</linearGradient>
<linearGradient id="paint4_linear_151_597" x1="741" y1="271" x2="741" y2="281" gradientUnits="userSpaceOnUse">
<stop stop-color="#FFFEDA"/>
<stop offset="1" stop-color="#FFFEDA" stop-opacity="0.59"/>
</linearGradient>
<linearGradient id="paint5_linear_151_597" x1="741" y1="101" x2="741" y2="111" gradientUnits="userSpaceOnUse">
<stop stop-color="#FFFEDA"/>
<stop offset="1" stop-color="#FFFEDA" stop-opacity="0.59"/>
</linearGradient>
<linearGradient id="paint6_linear_151_597" x1="377.5" y1="158" x2="377.5" y2="163" gradientUnits="userSpaceOnUse">
<stop stop-color="#FFFEDA"/>
<stop offset="1" stop-color="#FFFEDA" stop-opacity="0.59"/>
</linearGradient>
<linearGradient id="paint7_linear_151_597" x1="125.5" y1="163" x2="125.5" y2="168" gradientUnits="userSpaceOnUse">
<stop stop-color="#FFFEDA"/>
<stop offset="1" stop-color="#FFFEDA" stop-opacity="0.59"/>
</linearGradient>
<linearGradient id="paint8_linear_151_597" x1="250.5" y1="185" x2="250.5" y2="190" gradientUnits="userSpaceOnUse">
<stop stop-color="#FFFEDA"/>
<stop offset="1" stop-color="#FFFEDA" stop-opacity="0.59"/>
</linearGradient>
<linearGradient id="paint9_linear_151_597" x1="501.5" y1="218" x2="501.5" y2="223" gradientUnits="userSpaceOnUse">
<stop stop-color="#FFFEDA"/>
<stop offset="1" stop-color="#FFFEDA" stop-opacity="0.59"/>
</linearGradient>
<linearGradient id="paint10_linear_151_597" x1="615.5" y1="278" x2="615.5" y2="283" gradientUnits="userSpaceOnUse">
<stop stop-color="#FFFEDA"/>
<stop offset="1" stop-color="#FFFEDA" stop-opacity="0.59"/>
</linearGradient>
<linearGradient id="paint11_linear_151_597" x1="388.5" y1="310" x2="388.5" y2="315" gradientUnits="userSpaceOnUse">
<stop stop-color="#FFFEDA"/>
<stop offset="1" stop-color="#FFFEDA" stop-opacity="0.59"/>
</linearGradient>
<linearGradient id="paint12_linear_151_597" x1="526.5" y1="78" x2="526.5" y2="83" gradientUnits="userSpaceOnUse">
<stop stop-color="#FFFEDA"/>
<stop offset="1" stop-color="#FFFEDA" stop-opacity="0.59"/>
</linearGradient>
<linearGradient id="paint13_linear_151_597" x1="437.5" y1="126" x2="437.5" y2="131" gradientUnits="userSpaceOnUse">
<stop stop-color="#FFFEDA"/>
<stop offset="1" stop-color="#FFFEDA" stop-opacity="0.59"/>
</linearGradient>
<linearGradient id="paint14_linear_151_597" x1="664.5" y1="273" x2="664.5" y2="278" gradientUnits="userSpaceOnUse">
<stop stop-color="#FFFEDA"/>
<stop offset="1" stop-color="#FFFEDA" stop-opacity="0.59"/>
</linearGradient>
<linearGradient id="paint15_linear_151_597" x1="743.5" y1="206" x2="743.5" y2="211" gradientUnits="userSpaceOnUse">
<stop stop-color="#FFFEDA"/>
<stop offset="1" stop-color="#FFFEDA" stop-opacity="0.59"/>
</linearGradient>
<linearGradient id="paint16_linear_151_597" x1="175.5" y1="204" x2="175.5" y2="209" gradientUnits="userSpaceOnUse">
<stop stop-color="#FFFEDA"/>
<stop offset="1" stop-color="#FFFEDA" stop-opacity="0.59"/>
</linearGradient>
<linearGradient id="paint17_linear_151_597" x1="52" y1="276" x2="52" y2="286" gradientUnits="userSpaceOnUse">
<stop stop-color="#FFFEDA"/>
<stop offset="1" stop-color="#FFFEDA" stop-opacity="0.59"/>
</linearGradient>
<linearGradient id="paint18_linear_151_597" x1="231" y1="253" x2="231" y2="263" gradientUnits="userSpaceOnUse">
<stop stop-color="#FFFEDA"/>
<stop offset="1" stop-color="#FFFEDA" stop-opacity="0.59"/>
</linearGradient>
<linearGradient id="paint19_linear_151_597" x1="618" y1="66.9286" x2="618" y2="233" gradientUnits="userSpaceOnUse">
<stop stop-color="#A5C4EB"/>
<stop offset="1" stop-color="#51EAFF" stop-opacity="0"/>
</linearGradient>
<linearGradient id="paint20_linear_151_597" x1="387" y1="203" x2="387" y2="252.003" gradientUnits="userSpaceOnUse">
<stop stop-color="#94DFFF"/>
<stop offset="1" stop-color="#7FE0FF" stop-opacity="0"/>
</linearGradient>
<linearGradient id="paint21_linear_151_597" x1="365" y1="0" x2="365" y2="49.0033" gradientUnits="userSpaceOnUse">
<stop stop-color="#94DFFF"/>
<stop offset="1" stop-color="#7FE0FF" stop-opacity="0"/>
</linearGradient>
<linearGradient id="paint22_linear_151_597" x1="524" y1="357" x2="524" y2="406.003" gradientUnits="userSpaceOnUse">
<stop stop-color="#94DFFF"/>
<stop offset="1" stop-color="#7FE0FF" stop-opacity="0"/>
</linearGradient>
<linearGradient id="paint23_linear_151_597" x1="247.525" y1="313" x2="247.525" y2="363" gradientUnits="userSpaceOnUse">
<stop stop-color="#94DFFF"/>
<stop offset="1" stop-color="#7FE0FF" stop-opacity="0"/>
</linearGradient>
<linearGradient id="paint24_linear_151_597" x1="107.135" y1="193" x2="107.135" y2="263" gradientUnits="userSpaceOnUse">
<stop stop-color="#94DFFF"/>
<stop offset="1" stop-color="#7FE0FF" stop-opacity="0"/>
</linearGradient>
</defs>
</svg>
